<svg width="32" height="32" viewBox="0 0 32 32" fill="none" xmlns="http://www.w3.org/2000/svg">
<path d="M8 29.3333C6.88889 29.3333 5.94444 28.9444 5.16667 28.1666C4.38889 27.3889 4 26.4444 4 25.3333V24C4 23.2666 4.26133 22.6386 4.784 22.116C5.30667 21.5933 5.93422 21.3324 6.66667 21.3333H8V5.33329C8 4.59996 8.26133 3.97196 8.784 3.44929C9.30667 2.92663 9.93422 2.66574 10.6667 2.66663H25.3333C26.0667 2.66663 26.6947 2.92796 27.2173 3.45063C27.74 3.97329 28.0009 4.60085 28 5.33329V25.3333C28 26.4444 27.6111 27.3889 26.8333 28.1666C26.0556 28.9444 25.1111 29.3333 24 29.3333H8ZM24 26.6666C24.3778 26.6666 24.6947 26.5386 24.9507 26.2826C25.2067 26.0266 25.3342 25.7102 25.3333 25.3333V5.33329H10.6667V21.3333H20C20.7333 21.3333 21.3613 21.5946 21.884 22.1173C22.4067 22.64 22.6676 23.2675 22.6667 24V25.3333C22.6667 25.7111 22.7947 26.028 23.0507 26.284C23.3067 26.54 23.6231 26.6675 24 26.6666ZM13.3333 12C12.9556 12 12.6387 11.872 12.3827 11.616C12.1267 11.36 11.9991 11.0435 12 10.6666C12 10.2889 12.128 9.97196 12.384 9.71596C12.64 9.45996 12.9564 9.33241 13.3333 9.3333H22.6667C23.0444 9.3333 23.3613 9.4613 23.6173 9.7173C23.8733 9.9733 24.0009 10.2897 24 10.6666C24 11.0444 23.872 11.3613 23.616 11.6173C23.36 11.8733 23.0436 12.0009 22.6667 12H13.3333ZM13.3333 16C12.9556 16 12.6387 15.872 12.3827 15.616C12.1267 15.36 11.9991 15.0435 12 14.6666C12 14.2889 12.128 13.972 12.384 13.716C12.64 13.46 12.9564 13.3324 13.3333 13.3333H22.6667C23.0444 13.3333 23.3613 13.4613 23.6173 13.7173C23.8733 13.9733 24.0009 14.2897 24 14.6666C24 15.0444 23.872 15.3613 23.616 15.6173C23.36 15.8733 23.0436 16.0009 22.6667 16H13.3333ZM8 26.6666H20V24H6.66667V25.3333C6.66667 25.7111 6.79467 26.028 7.05067 26.284C7.30667 26.54 7.62311 26.6675 8 26.6666ZM8 26.6666H6.66667H20H8Z" fill="#24324D"/>
</svg>
