<svg width="28" height="28" viewBox="0 0 28 28" fill="none" xmlns="http://www.w3.org/2000/svg">
<path d="M7.33317 19.3333V20.6666C7.33317 21.0444 7.46117 21.3613 7.71717 21.6173C7.97317 21.8733 8.28962 22.0009 8.66651 22C9.04428 22 9.36117 21.872 9.61717 21.616C9.87317 21.36 10.0007 21.0435 9.99984 20.6666V19.3333H11.3332C11.711 19.3333 12.0278 19.2053 12.2838 18.9493C12.5398 18.6933 12.6674 18.3769 12.6665 18C12.6665 17.6222 12.5385 17.3053 12.2825 17.0493C12.0265 16.7933 11.7101 16.6657 11.3332 16.6666H9.99984V15.3333C9.99984 14.9555 9.87184 14.6386 9.61584 14.3826C9.35984 14.1266 9.0434 13.9991 8.66651 14C8.28873 14 7.97184 14.128 7.71584 14.384C7.45984 14.64 7.33228 14.9564 7.33317 15.3333V16.6666H5.99984C5.62206 16.6666 5.30517 16.7946 5.04917 17.0506C4.79317 17.3066 4.66562 17.6231 4.66651 18C4.66651 18.3777 4.79451 18.6946 5.05051 18.9506C5.30651 19.2066 5.62295 19.3342 5.99984 19.3333H7.33317ZM16.3332 17.3333H22.3332C22.6221 17.3333 22.8607 17.2386 23.0492 17.0493C23.2376 16.86 23.3323 16.6213 23.3332 16.3333C23.3332 16.0444 23.2385 15.8057 23.0492 15.6173C22.8598 15.4289 22.6212 15.3342 22.3332 15.3333H16.3332C16.0443 15.3333 15.8056 15.428 15.6172 15.6173C15.4287 15.8066 15.3341 16.0453 15.3332 16.3333C15.3332 16.6222 15.4278 16.8609 15.6172 17.0493C15.8065 17.2377 16.0452 17.3324 16.3332 17.3333ZM16.3332 21.3333H19.6665C19.9554 21.3333 20.1941 21.2386 20.3825 21.0493C20.571 20.86 20.6656 20.6213 20.6665 20.3333C20.6665 20.0444 20.5718 19.8057 20.3825 19.6173C20.1932 19.4289 19.9545 19.3342 19.6665 19.3333H16.3332C16.0443 19.3333 15.8056 19.428 15.6172 19.6173C15.4287 19.8066 15.3341 20.0453 15.3332 20.3333C15.3332 20.6222 15.4278 20.8609 15.6172 21.0493C15.8065 21.2377 16.0452 21.3324 16.3332 21.3333ZM3.33317 27.3333C2.59984 27.3333 1.97184 27.072 1.44917 26.5493C0.926506 26.0266 0.665617 25.3991 0.666506 24.6666V9.99996C0.666506 9.26663 0.92784 8.63863 1.45051 8.11596C1.97317 7.5933 2.60073 7.33241 3.33317 7.3333H9.99984V3.33329C9.99984 2.59996 10.2612 1.97196 10.7838 1.44929C11.3065 0.926628 11.9341 0.665739 12.6665 0.666628H15.3332C16.0665 0.666628 16.6945 0.927962 17.2172 1.45063C17.7398 1.97329 18.0007 2.60085 17.9998 3.33329V7.3333H24.6665C25.3998 7.3333 26.0278 7.59463 26.5505 8.1173C27.0732 8.63996 27.3341 9.26752 27.3332 9.99996V24.6666C27.3332 25.4 27.0718 26.028 26.5492 26.5506C26.0265 27.0733 25.399 27.3342 24.6665 27.3333H3.33317ZM3.33317 24.6666H24.6665V9.99996H17.9998C17.9998 10.7333 17.7385 11.3613 17.2158 11.884C16.6932 12.4066 16.0656 12.6675 15.3332 12.6666H12.6665C11.9332 12.6666 11.3052 12.4053 10.7825 11.8826C10.2598 11.36 9.99895 10.7324 9.99984 9.99996H3.33317V24.6666ZM12.6665 9.99996H15.3332V3.33329H12.6665V9.99996Z" fill="#24324D"/>
</svg>
